<svg width="78" height="50" viewBox="0 0 78 50" fill="none" xmlns="http://www.w3.org/2000/svg">
<path d="M13.5764 4.43134L13.2516 8.26391H5.00184V12.129H11.79V15.8641H5.00184V19.8916H13.7388V23.7241H0.682069V4.43134H13.5764Z" fill="white"/>
<path d="M32.8195 4.43134V15.5393C32.8195 20.9634 29.7014 24.0164 24.4723 24.0164C19.2431 24.0164 16.125 20.9634 16.125 15.5393V4.43134H20.4448V15.2145C20.4448 18.2676 21.7115 20.054 24.5697 20.054C27.3954 20.054 28.6621 18.2676 28.6621 15.2145V4.43134H32.8195Z" fill="white"/>
<path d="M13.2841 31.1619L12.4721 34.9945C11.4003 34.3449 9.15921 33.9227 7.60019 33.9227C5.52151 33.9227 4.41721 34.5398 4.41721 35.7415C4.41721 38.7946 14.0961 37.0732 14.0961 43.8939C14.0961 47.629 11.2704 50 6.13862 50C3.76762 50 1.46158 49.5128 0.0974384 48.7983L0.454712 44.7708C1.68893 45.5503 4.12489 46.1999 6.26853 46.1999C8.60706 46.1999 9.67888 45.5828 9.67888 44.2836C9.67888 41.1331 0 42.887 0 36.1313C0 32.5585 2.85819 30.1226 7.50275 30.1226C9.38656 30.1226 11.855 30.4799 13.2841 31.1619Z" fill="white"/>
<path d="M25.2419 49.7077H20.9221V34.28H15.4006V30.4149H30.9258L30.601 34.28H25.2419V49.7077Z" fill="white"/>
<path d="M47.8133 49.7077H43.2337L41.5773 44.9982H34.789L33.1326 49.7077H28.7479L35.7959 30.4149H40.7977L47.8133 49.7077ZM40.4729 41.5878L38.9139 37.1706C38.6216 36.3262 38.4267 35.6116 38.2643 34.8321H38.102C37.9396 35.6116 37.7447 36.3262 37.4524 37.1706L35.8609 41.5878H40.4729Z" fill="white"/>
<path d="M62.8272 30.4149L55.9091 42.887V49.7077H51.6218V42.887L44.7037 30.4149H49.4781L53.8629 38.892L58.2476 30.4149H62.8272Z" fill="white"/>
<path d="M76.8791 31.1619L76.0671 34.9945C74.9953 34.3449 72.7542 33.9227 71.1952 33.9227C69.1165 33.9227 68.0122 34.5398 68.0122 35.7415C68.0122 38.7946 77.6911 37.0732 77.6911 43.8939C77.6911 47.629 74.8654 50 69.7336 50C67.3626 50 65.0566 49.5128 63.6925 48.7983L64.0497 44.7708C65.284 45.5503 67.7199 46.1999 69.8636 46.1999C72.2021 46.1999 73.2739 45.5828 73.2739 44.2836C73.2739 41.1331 63.595 42.887 63.595 36.1313C63.595 32.5585 66.4532 30.1226 71.0978 30.1226C72.9816 30.1226 75.45 30.4799 76.8791 31.1619Z" fill="white"/>
<path fill-rule="evenodd" clip-rule="evenodd" d="M54.2556 0.144217C53.9825 -0.0480724 53.6181 -0.0480724 53.345 0.144217L40.8571 8.93763C40.5712 9.13894 40.4515 9.50408 40.5626 9.83559L45.3224 24.0332C45.4304 24.3554 45.7323 24.5726 46.0721 24.5726H49.2869C49.5616 22.302 51.4954 20.5427 53.8401 20.5427C56.1848 20.5427 58.1186 22.302 58.3933 24.5726H61.5284C61.8683 24.5726 62.1702 24.3554 62.2782 24.0332L67.038 9.83559C67.1491 9.50408 67.0293 9.13894 66.7435 8.93763L54.2556 0.144217ZM57.0823 14.4535C57.0823 16.2441 55.6306 17.6958 53.84 17.6958C52.0493 17.6958 50.5977 16.2441 50.5977 14.4535C50.5977 12.6628 52.0493 11.2112 53.84 11.2112C55.6306 11.2112 57.0823 12.6628 57.0823 14.4535Z" fill="white"/>
</svg>
